<?xml version="1.0" encoding="utf-8"?>
<!-- Generator: Adobe Illustrator 14.0.0, SVG Export Plug-In . SVG Version: 6.00 Build 43363)  -->
<!DOCTYPE svg PUBLIC "-//W3C//DTD SVG 1.1//EN" "http://www.w3.org/Graphics/SVG/1.1/DTD/svg11.dtd">
<svg version="1.1" id="Layer_1" xmlns="http://www.w3.org/2000/svg" xmlns:xlink="http://www.w3.org/1999/xlink" x="0px" y="0px"
	 width="111.5px" height="32.189px" viewBox="0 0 111.5 32.189" enable-background="new 0 0 111.5 32.189" xml:space="preserve">
<g>
	<g>
		<path fill="#FFFFFF" d="M33.134,10.685h-1.283v12.131h2.477V11.854c0-0.328-0.128-0.612-0.353-0.833
			C33.722,10.8,33.455,10.685,33.134,10.685z M28.474,13.565c-0.6-0.221-1.196-0.33-1.755-0.33c-1.142,0-2.17,0.305-3.143,0.902
			c-0.982,0.596-1.45,1.715-1.45,3.361v8.78h1.208c0.337,0,0.607-0.113,0.842-0.354c0.248-0.226,0.375-0.512,0.375-0.845v-3.51
			c0.263,0.498,0.648,0.869,1.092,1.095c0.451,0.211,0.982,0.319,1.556,0.319c1.104,0,2.001-0.444,2.701-1.334
			c0.716-0.916,1.067-2.114,1.067-3.594c0-1.436-0.351-2.595-1.074-3.517C29.557,14.118,29.068,13.786,28.474,13.565z
			 M28.005,20.173c-0.351,0.488-0.835,0.743-1.442,0.743c-0.647,0-1.139-0.255-1.505-0.743c-0.366-0.455-0.508-1.109-0.508-2.012
			c0-0.951,0.143-1.662,0.457-2.103c0.366-0.501,0.854-0.749,1.494-0.749c0.663,0,1.154,0.248,1.505,0.749
			c0.36,0.489,0.532,1.195,0.532,2.103C28.537,19.006,28.365,19.672,28.005,20.173z M61.562,14.817
			c-0.446-0.615-1.015-1.057-1.677-1.343c-0.705-0.286-1.457-0.329-2.229-0.134c-0.762,0.182-1.362,0.623-1.795,1.328l0.007-2.783
			c0-0.332-0.108-0.612-0.358-0.842c-0.233-0.243-0.503-0.359-0.843-0.359h-1.194v12.131h2.395v-4.828
			c0-0.818,0.173-1.462,0.526-1.928c0.358-0.479,0.854-0.705,1.509-0.705c0.625,0,1.099,0.242,1.451,0.729
			c0.22,0.309,0.353,0.611,0.4,0.906c0.08,0.289,0.09,0.607,0.09,0.973v4.854h2.38v-5.462C62.223,16.28,62.003,15.421,61.562,14.817
			z M49.186,17.079c-0.088,0-0.191-0.017-0.31-0.034c-0.088-0.026-0.22-0.056-0.367-0.109c-1.203-0.255-1.842-0.568-1.842-0.941
			c0-0.286,0.106-0.497,0.318-0.632c0.248-0.146,0.608-0.219,1.089-0.219c0.469,0,0.871,0.11,1.155,0.325
			c0.088,0.09,0.18,0.18,0.268,0.271c0.222,0.41,0.573,0.607,1.014,0.607h1.517c-0.034-0.936-0.406-1.702-1.078-2.291
			c-0.726-0.545-1.7-0.82-2.922-0.82c-1.138,0-2.03,0.275-2.767,0.813c-0.669,0.59-0.997,1.32-0.997,2.213
			c0,0.706,0.218,1.278,0.686,1.695c0.436,0.415,1.274,0.782,2.513,1.088c0.215,0.069,0.53,0.138,0.938,0.208
			c0.994,0.216,1.491,0.526,1.491,0.95c0,0.28-0.132,0.502-0.402,0.66c-0.327,0.175-0.679,0.26-1.104,0.26
			c-0.599,0-1.074-0.119-1.415-0.358c-0.313-0.234-0.524-0.591-0.531-1.056h-2.396v0.111c0,1.036,0.326,1.815,1.028,2.347
			c0.66,0.543,1.651,0.818,3,0.818c1.416,0,2.455-0.266,3.158-0.769c0.762-0.563,1.137-1.36,1.137-2.39
			c0-0.711-0.228-1.267-0.688-1.692C51.231,17.742,50.38,17.378,49.186,17.079z M42.156,13.903
			c-0.652-0.447-1.638-0.668-2.963-0.668c-1.152,0-2.078,0.275-2.699,0.82c-0.573,0.465-0.897,1.069-0.985,1.792h2.353
			c0.106-0.267,0.304-0.437,0.566-0.54c0.275-0.095,0.545-0.143,0.885-0.143c0.284,0,0.633,0.058,1.009,0.16
			c0.348,0.098,0.549,0.34,0.549,0.689c0,0.468-0.528,0.779-1.556,0.921c-0.211,0.013-0.391,0.054-0.565,0.082
			c-0.159,0.036-0.31,0.061-0.441,0.061c-0.883,0.136-1.607,0.419-2.207,0.839c-0.55,0.434-0.842,1.138-0.842,2.125
			c0,1.061,0.31,1.813,0.945,2.273c0.642,0.453,1.394,0.687,2.225,0.687c0.411,0,0.918-0.024,1.466-0.083
			c0.555-0.054,1.063-0.214,1.553-0.479c0.483-0.232,0.881-0.607,1.216-1.148c0.336-0.524,0.509-1.251,0.509-2.2v-3.205
			C43.175,15.035,42.847,14.382,42.156,13.903z M40.887,18.979c0,0.662-0.189,1.176-0.549,1.552
			c-0.393,0.384-0.883,0.567-1.545,0.567c-0.41,0-0.737-0.089-0.945-0.283c-0.2-0.219-0.321-0.502-0.321-0.841
			c0-0.258,0.093-0.529,0.252-0.777c0.179-0.191,0.495-0.349,0.93-0.459l0.802-0.178c0.607-0.148,1.055-0.293,1.375-0.465V18.979z"
			/>
	</g>
</g>
<path fill="#FFFFFF" d="M21.02,21.024c0-0.048,0-0.09,0-0.129c-0.02-0.144-0.04-0.26-0.04-0.39c-0.004-0.029-0.01-0.081-0.018-0.112
	c0-0.147-0.02-0.3-0.035-0.458c-0.021-0.049-0.038-0.092-0.038-0.14c-0.03-0.108-0.038-0.22-0.048-0.328
	c0-0.051-0.022-0.113-0.041-0.158c-0.042-0.137-0.056-0.283-0.09-0.42c-0.007-0.056-0.041-0.108-0.049-0.175
	c-0.027-0.086-0.04-0.177-0.081-0.258c-0.009-0.075-0.042-0.146-0.054-0.215c-0.018-0.08-0.042-0.157-0.08-0.224
	c-0.031-0.121-0.088-0.253-0.135-0.369c-0.003-0.061-0.043-0.114-0.078-0.176c-0.036-0.096-0.055-0.173-0.097-0.26
	c-0.027-0.045-0.043-0.092-0.049-0.135c-0.13-0.285-0.274-0.563-0.432-0.828c-0.008-0.035-0.024-0.076-0.049-0.102
	c-0.062-0.09-0.09-0.179-0.168-0.264l0,0c-0.538-1.152-1.288-2.354-2.262-3.558c-0.462-0.56-0.883-1.129-1.282-1.7
	c-0.752-0.203-1.678-0.354-2.724-0.354c-3.2,0-4.402,1.81-4.402,3.313c0,2.055,1.414,3.081,4.647,4.255
	c3.953,1.47,5.932,3.239,5.932,6.486c0,3.4-2.633,6.387-8.169,6.387c-0.23,0-0.45-0.003-0.668-0.019v1.493l0,0
	c5.816,0,10.517-4.779,10.517-10.68C21.026,21.352,21.02,21.186,21.02,21.024z"/>
<path fill="#FFFFFF" d="M5.196,29.27l0.826-2.391c1.34,0.822,3.288,1.44,5.363,1.44c3.111,0,4.908-1.512,4.908-3.762
	c0-2.036-1.242-3.253-4.399-4.355c-3.828-1.313-6.178-3.209-6.178-6.291c0-3.439,3.013-6,7.568-6c0.274,0,0.538,0.017,0.816,0.035
	c-2.273-3.691-3.267-6.684-3.556-7.624C10.568,0.118,10.585,0,10.585,0s-0.041,0.06-0.076,0.21C10.491,0.06,10.454,0,10.454,0
	s0.004,0.118,0.042,0.322c-0.422,1.302-2.165,6.454-6.633,12.006c-0.976,1.204-1.74,2.405-2.282,3.558l0,0
	c-0.057,0.085-0.111,0.174-0.146,0.264c-0.041,0.025-0.049,0.066-0.072,0.102c-0.15,0.265-0.281,0.543-0.412,0.828
	c-0.023,0.043-0.034,0.09-0.048,0.135c-0.049,0.089-0.086,0.164-0.111,0.26c-0.023,0.062-0.061,0.115-0.082,0.177
	c-0.027,0.115-0.105,0.247-0.118,0.368c-0.04,0.066-0.074,0.144-0.097,0.224c-0.003,0.068-0.034,0.14-0.048,0.215
	c-0.026,0.081-0.065,0.172-0.075,0.258C0.37,18.781,0.33,18.834,0.33,18.89c-0.049,0.137-0.056,0.283-0.089,0.42
	c-0.033,0.045-0.042,0.107-0.043,0.158c-0.034,0.108-0.034,0.22-0.047,0.328c-0.006,0.048-0.03,0.091-0.04,0.14
	c-0.025,0.158-0.043,0.311-0.054,0.458c0,0.031,0,0.083,0,0.112c-0.002,0.13-0.029,0.246-0.038,0.39c0,0.039,0,0.081,0,0.129
	C0.013,21.186,0,21.352,0,21.51c0,5.9,4.706,10.68,10.509,10.68v-1.493C8.438,30.583,6.342,29.979,5.196,29.27z"/>
<g>
	<g>
		<path fill="#FFFFFF" d="M81.393,13.475c-0.691-0.286-1.438-0.329-2.227-0.134c-0.768,0.182-1.366,0.623-1.802,1.328v-2.783
			c0-0.332-0.109-0.612-0.329-0.842c-0.245-0.243-0.542-0.359-0.869-0.359h-1.197v12.131h2.396v-4.828
			c0-0.818,0.201-1.462,0.544-1.928c0.329-0.479,0.853-0.705,1.515-0.705c0.611,0,1.099,0.242,1.426,0.729
			c0.218,0.309,0.348,0.611,0.43,0.906c0.049,0.289,0.091,0.607,0.091,0.973v4.854h2.347v-5.462c0-1.073-0.221-1.933-0.662-2.536
			C82.598,14.202,82.046,13.761,81.393,13.475z M68.905,12.591c0.792,0,1.405,0.179,1.883,0.533
			c0.234,0.225,0.425,0.498,0.587,0.815c0.229,0.484,0.653,0.729,1.201,0.729h1.521c-0.114-1.368-0.62-2.416-1.479-3.178
			c-0.916-0.763-2.149-1.156-3.713-1.156c-1.886,0-3.358,0.555-4.376,1.656c-0.979,1.064-1.464,2.653-1.464,4.771
			c0,2.063,0.47,3.631,1.45,4.691c0.977,1.095,2.353,1.653,4.186,1.653c1.585,0,2.854-0.391,3.804-1.163
			c0.939-0.799,1.479-1.9,1.593-3.315h-2.425c-0.188,0.772-0.516,1.346-0.956,1.691c-0.494,0.378-1.108,0.57-1.86,0.57
			c-1.077,0-1.897-0.364-2.438-1.094c-0.566-0.706-0.833-1.713-0.833-3.028c0-1.372,0.267-2.41,0.833-3.116
			C67.001,12.948,67.842,12.591,68.905,12.591z M99.903,20.107c-0.142,0.116-0.231,0.205-0.281,0.286
			c-0.072,0.065-0.154,0.134-0.196,0.194c-0.066,0.052-0.123,0.097-0.193,0.116c-0.3,0.155-0.636,0.249-1.017,0.249
			c-0.611,0-1.063-0.191-1.373-0.563c-0.424-0.454-0.642-1.209-0.642-2.294c0-1.064,0.218-1.846,0.642-2.305
			c0.337-0.33,0.752-0.5,1.258-0.5c0.566,0,0.999,0.17,1.311,0.496c0.122,0.116,0.229,0.278,0.351,0.517h2.462
			c-0.178-0.676-0.474-1.273-0.904-1.798c-0.765-0.839-1.869-1.271-3.282-1.271c-1.335,0-2.38,0.434-3.143,1.306
			c-0.74,0.851-1.089,2.02-1.089,3.53c0,1.57,0.383,2.784,1.128,3.628c0.743,0.865,1.813,1.303,3.119,1.303
			c1.11,0,2.046-0.264,2.771-0.811c0.713-0.515,1.221-1.27,1.475-2.256h-1.744C100.252,19.936,100.032,19.989,99.903,20.107z
			 M108.12,17.035l3.327-3.593h-2.941l-2.994,3.444v-3.444v-1.588c0-0.304-0.132-0.581-0.354-0.811
			c-0.246-0.243-0.525-0.359-0.841-0.359h-1.262v12.131h2.456v-2.246v-1.305c0-0.196,0.131-0.328,0.381-0.419
			c0.264-0.105,0.551,0.16,0.918,0.804l1.717,3.166h2.973L108.12,17.035z M88.885,13.235c-1.352,0-2.389,0.434-3.142,1.306
			c-0.743,0.851-1.098,2.02-1.098,3.53c0,1.57,0.358,2.784,1.108,3.628c0.757,0.865,1.832,1.303,3.152,1.303
			c1.091,0,2.025-0.264,2.752-0.811c0.732-0.515,1.221-1.27,1.494-2.256h-1.761c-0.299,0-0.513,0.054-0.65,0.172
			c-0.173,0.116-0.261,0.205-0.286,0.286c-0.066,0.065-0.134,0.134-0.195,0.194c-0.047,0.052-0.124,0.097-0.182,0.116
			c-0.301,0.155-0.628,0.249-1.022,0.249c-0.613,0-1.062-0.196-1.366-0.576c-0.332-0.337-0.523-0.891-0.529-1.623h6.1
			c0.008-0.043,0.008-0.126,0.008-0.241c0-0.03,0-0.074,0-0.149c0-0.062,0-0.152,0-0.24c0-1.551-0.36-2.761-1.112-3.628
			C91.392,13.667,90.3,13.235,88.885,13.235z M87.16,17.173c0.006-0.601,0.197-1.066,0.529-1.389
			c0.323-0.322,0.753-0.492,1.244-0.492c0.572,0,1.014,0.17,1.324,0.492c0.281,0.299,0.442,0.769,0.497,1.389H87.16z"/>
	</g>
</g>
</svg>
